<svg xmlns="http://www.w3.org/2000/svg" height="48" viewBox="0 -960 960 960" width="48"><path d="M480.154-103.078q-108.769 0-183.23-74.353-74.461-74.352-74.461-183.184v-251.846q0-108.832 74.307-183.185 74.307-74.352 183.076-74.352 108.769 0 183.23 74.352 74.461 74.353 74.461 183.185v251.846q0 108.832-74.307 183.184-74.308 74.353-183.076 74.353Zm22.115-509.383h191.423q0-82.202-54.635-143.524t-136.788-69.322v212.846Zm-235.961 0h192.116v-212.846q-82.846 8-137.481 69.322-54.635 61.322-54.635 143.524Zm213.308 465.538q88.523 0 151.3-62.505 62.776-62.505 62.776-151.187v-208.001H266.308v208.001q0 88.682 62.393 151.187 62.392 62.505 150.915 62.505ZM480-568.616Zm22.269-43.845Zm-43.845 0ZM480-568.616Z"/></svg>