<svg xmlns="http://www.w3.org/2000/svg" height="48" viewBox="0 -960 960 960" width="48"><path d="M75.118-191.694v-74.076q0-31.405 15.832-55.151 15.833-23.746 45.161-36.519 64.659-28.444 117.64-42.444 52.98-14 118.596-14 65.616 0 118.02 14 52.404 14 117.625 42.383 28.999 12.861 45.196 36.599 16.196 23.737 16.196 55.132v74.076H75.118Zm659.536 0v-72.614q0-52.884-25.067-88.308-25.066-35.424-64.662-57.806 52.614 8.308 99.756 21.305 47.142 12.998 79.294 28.627 27.562 15.99 44.581 40.475 17.019 24.484 17.019 55.583v72.738H734.654ZM372.347-492.616q-57.655 0-94.346-36.691t-36.691-94.347q0-57.655 36.691-94.153 36.691-36.499 94.346-36.499t94.154 36.499Q503-681.309 503-623.654q0 57.656-36.499 94.347-36.499 36.691-94.154 36.691Zm310.42-131.28q0 57.286-36.499 94.033-36.498 36.747-94.291 36.747-6.708 0-13.835-.767-7.126-.767-13.68-3.095 21.641-22.826 32.474-54.989 10.833-32.162 10.833-71.569 0-39.271-11.384-69.946-11.385-30.674-31.923-57.209 5.769-1.466 13.576-2.541 7.808-1.074 13.884-1.074 57.848 0 94.346 36.665 36.499 36.665 36.499 93.745ZM118.963-235.539h506.576v-30.054q0-16.367-9.365-30.214-9.366-13.847-25.751-22.847-63.483-29.5-110.473-40.443-46.99-10.942-107.268-10.942-60.447 0-108.16 10.942-47.714 10.943-110.674 40.443-17.078 9-25.981 22.978-8.904 13.979-8.904 29.906v30.231Zm253.13-300.922q37.715 0 62.388-24.612 24.673-24.611 24.673-62.326 0-37.716-24.611-62.389-24.611-24.673-62.326-24.673-37.716 0-62.389 24.611-24.673 24.611-24.673 62.327 0 37.716 24.611 62.389 24.611 24.673 62.327 24.673Zm.062 300.922Zm0-387.922Z"/></svg>